<?xml version="1.0" standalone="no"?><!DOCTYPE svg PUBLIC "-//W3C//DTD SVG 1.1//EN" "http://www.w3.org/Graphics/SVG/1.1/DTD/svg11.dtd"><svg t="1763106447121" class="icon" viewBox="0 0 1024 1024" version="1.1" xmlns="http://www.w3.org/2000/svg" p-id="6264" xmlns:xlink="http://www.w3.org/1999/xlink" width="200" height="200"><path d="M640 938.666667v85.333333h-85.162667v-85.333333H640z m-170.666667 0v85.333333H384v-85.333333h85.333333zM896 0a128 128 0 0 1 127.786667 120.490667L1024 128v768a128 128 0 0 1-120.490667 127.786667L896 1024h-170.666667v-85.333333h170.666667a42.666667 42.666667 0 0 0 42.368-37.674667L938.666667 896V128a42.666667 42.666667 0 0 0-37.674667-42.368L896 85.333333H128a42.666667 42.666667 0 0 0-42.368 37.674667L85.333333 128v768a42.666667 42.666667 0 0 0 37.674667 42.368L128 938.666667h170.666667v85.333333H128a128 128 0 0 1-127.786667-120.490667L0 896V128A128 128 0 0 1 120.490667 0.213333L128 0h768z" fill="#191919" p-id="6265"></path><path d="M455.381333 266.666667H224v490.666666h232.106667c54.570667 0 96.938667-9.642667 125.824-28.288 33.28-22.4 50.048-57.173333 50.048-105.173333 0-31.914667-8.064-57.514667-23.338667-75.52-14.378667-16.810667-34.730667-28.501333-61.866667-35.114667l-10.453333-2.218666-37.589333-6.997334 35.797333-13.482666c25.216-9.514667 43.349333-22.058667 55.722667-38.4 12.928-18.517333 19.541333-40.832 19.541333-67.072 0-35.413333-12.586667-63.317333-37.546667-84.266667-25.386667-20.864-60.586667-32.298667-105.472-33.92l-11.392-0.213333z" fill="#005DE5" p-id="6266"></path><path d="M455.381333 245.333333c54.954667 0 98.730667 12.928 130.474667 39.082667 29.994667 25.130667 45.226667 59.050667 45.226667 100.693333 0 30.464-7.850667 57.088-23.594667 79.530667-6.741333 8.96-14.72 16.853333-24.064 23.850667l-7.253333 5.034666-6.869334 4.181334 1.792 0.64c15.829333 5.802667 29.482667 13.568 41.002667 23.381333l6.656 6.144 6.101333 6.613333c18.858667 22.229333 28.458667 52.693333 28.458667 89.386667 0 54.826667-20.010667 96.298667-59.648 122.965333-30.421333 19.626667-72.192 30.122667-124.288 31.658667l-13.226667 0.170667H202.666667V245.333333h252.714666z m365.952 0v533.333334h-107.946666V245.333333h107.946666z m-365.952 21.333334H224v490.666666h232.106667c54.570667 0 96.938667-9.642667 125.824-28.288 33.28-22.4 50.048-57.173333 50.048-105.173333 0-31.914667-8.064-57.514667-23.338667-75.52-14.378667-16.810667-34.730667-28.501333-61.866667-35.114667l-10.453333-2.218666-37.589333-6.997334 35.797333-13.482666c25.216-9.514667 43.349333-22.058667 55.722667-38.4 12.928-18.517333 19.541333-40.832 19.541333-67.072 0-35.413333-12.586667-63.317333-37.546667-84.266667-25.386667-20.864-60.586667-32.298667-105.472-33.92l-11.392-0.213333z m-9.642666 262.613333c40.533333 0 70.741333 6.954667 90.88 21.546667 20.053333 15.232 30.08 39.424 30.08 71.594666 0 32.384-13.781333 56.149333-41.088 71.04-18.005333 9.770667-41.770667 15.104-70.912 16.170667l-11.178667 0.213333H289.28v-180.565333h156.458667z m0 21.333333H310.613333v137.856h132.949334c31.061333 0 55.210667-4.693333 71.893333-13.738666 20.352-11.093333 29.952-27.648 29.952-52.309334 0-25.984-7.381333-43.733333-21.504-54.485333-14.08-10.197333-36.565333-16.042667-67.498667-17.109333l-10.624-0.213334z m-11.818667-236.458666c37.333333 0 64.64 6.144 83.2 19.285333 18.048 13.056 27.392 34.432 27.392 61.696 0 29.013333-9.088 51.669333-27.306667 66.645333-16.256 12.032-40.96 18.602667-73.6 19.797334l-11.178666 0.213333H289.28V314.154667h144.64z m0 21.333333H310.570667v124.970667h121.856c34.090667 0 58.325333-5.674667 71.68-15.488 12.416-10.24 19.072-26.794667 19.072-49.834667 0-20.864-6.528-35.712-18.432-44.373333-12.8-9.045333-32.938667-14.165333-61.141334-15.104l-9.685333-0.170667z" fill="#005DE5" p-id="6267"></path><path d="M445.738667 529.28c40.533333 0 70.741333 6.954667 90.88 21.546667 20.053333 15.232 30.08 39.424 30.08 71.594666 0 32.384-13.781333 56.149333-41.088 71.04-18.005333 9.770667-41.770667 15.104-70.912 16.170667l-11.178667 0.213333H289.28v-180.565333h156.458667z" fill="#005DE5" p-id="6268"></path><path d="M445.738667 550.613333H310.613333v137.856h132.949334c31.061333 0 55.210667-4.693333 71.893333-13.738666 20.352-11.093333 29.952-27.648 29.952-52.309334 0-25.984-7.381333-43.733333-21.504-54.485333-14.08-10.197333-36.565333-16.042667-67.498667-17.109333l-10.624-0.213334z" fill="#FFFFFF" p-id="6269"></path><path d="M433.92 314.154667c37.333333 0 64.64 6.144 83.2 19.285333 18.048 13.056 27.392 34.432 27.392 61.696 0 29.013333-9.088 51.669333-27.306667 66.645333-16.256 12.032-40.96 18.602667-73.6 19.797334l-11.178666 0.213333H289.28V314.154667h144.64z" fill="#005DE5" p-id="6270"></path><path d="M433.92 335.488H310.570667v124.970667h121.856c34.090667 0 58.325333-5.674667 71.68-15.488 12.416-10.24 19.072-26.794667 19.072-49.834667 0-20.864-6.528-35.712-18.432-44.373333-12.8-9.045333-32.938667-14.165333-61.141334-15.104l-9.685333-0.170667z" fill="#FFFFFF" p-id="6271"></path></svg>